<?xml version="1.0" standalone="no"?>
<!DOCTYPE svg PUBLIC "-//W3C//DTD SVG 20010904//EN"
 "http://www.w3.org/TR/2001/REC-SVG-20010904/DTD/svg10.dtd">
<svg version="1.0" xmlns="http://www.w3.org/2000/svg"
 width="139.000000pt" height="121.000000pt" viewBox="0 0 139.000000 121.000000"
 preserveAspectRatio="xMidYMid meet">
<metadata>
Created by potrace 1.16, written by Peter Selinger 2001-2019
</metadata>
<g transform="translate(0.000000,121.000000) scale(0.100000,-0.100000)"
fill="#000000" stroke="none">
<path d="M511 1091 c-7 -5 -11 -13 -9 -17 3 -5 42 -71 86 -146 45 -76 82 -142
82 -147 0 -7 -66 -12 -177 -13 l-177 -3 -94 -158 -94 -158 31 -50 c17 -28 31
-52 31 -54 0 -14 111 -180 120 -180 7 0 48 58 91 130 43 72 84 131 91 133 7 1
49 -58 97 -138 45 -77 91 -145 101 -150 21 -11 370 -13 385 -2 12 8 85 117 85
126 0 3 14 25 30 49 17 25 30 48 30 52 0 4 10 20 21 37 18 25 19 32 8 39 -8 5
-89 9 -181 9 -128 0 -168 3 -168 13 0 6 41 79 90 161 50 82 90 152 90 156 0
14 -172 295 -188 308 -19 14 -358 17 -381 3z m282 -506 l77 -130 -182 -5
c-101 -3 -184 -2 -186 2 -3 7 73 140 146 256 l34 54 16 -24 c10 -12 52 -81 95
-153z"/>
</g>
</svg>
